<svg version="1.0" xmlns="http://www.w3.org/2000/svg" viewBox="0 0 512 512">
  <path d="M92 155.9c-17.5 3.8-32 11.9-43.7 24.4-21.5 23-29.4 60.7-20.2 97.1 2.4 9.9 11.4 28.4 16.7 34.7 16.8 20.2 42.1 30.9 72.5 30.9 24.3 0 53.5-9.4 72-23l6.7-5v-73h-80v31h42v11.3c0 12.9.3 12.4-9.1 17.6-10.1 5.7-19.4 8.3-30.8 8.9-12.1.6-19.2-.7-27.3-5-16.9-8.9-25.6-24.3-27.8-49-3.7-42.2 13.1-67.9 46.5-71.2 8.9-.9 19.2.7 26.4 4.1 7.3 3.5 15.2 11.6 18.2 18.7 1.3 3.2 2.9 5.6 3.7 5.6 2 0 34.6-6.2 35.1-6.6.3-.3-.3-3-1.3-6.2-4.5-14.4-14.4-27.7-26-35-13.9-8.9-23.6-11.3-47.1-11.8-14.9-.3-19.5-.1-26.5 1.5zM329 248.4V340h44.8c46.1 0 65.3-.9 73.3-3.4 11.5-3.5 19.8-9.7 26.3-19.5 17.5-26.3 10.1-58.2-16.4-70.9l-7.9-3.7 4.3-2.8c18.8-11.9 25.8-35.8 16.1-55.3-6.1-12.5-15.8-20.6-29.4-24.8-6.2-1.8-10-2-58.8-2.4l-52.3-.3v91.5zm95.2-59.5c14.3 4.5 18.3 22.7 7.5 33.9-5.2 5.4-10 6.2-38.9 6.9l-25.8.6v-43.5l26.8.5c15.8.3 28.2.9 30.4 1.6zm-6.5 72c15.1 1.5 22.9 6.6 25.9 16.8 3.5 11.9-1.2 23.3-11.4 28.1l-5.7 2.7-29.7.3-29.8.4V260h20.8c11.4 0 24.8.5 29.9.9zM282.7 205.4c-6 1.6-10.9 5.5-16.9 13.5l-4.8 6.2V207h-33v133h34.7l.6-37.3c.6-40.9 1.4-48 6.5-57 5.5-9.7 16.9-12.4 28.5-6.8 2.6 1.3 4.9 2.2 5.1 2 .2-.2 2.6-7.1 5.4-15.2l5.2-14.8-5.4-2.5c-5.1-2.3-14.6-4.5-19.1-4.3-1.1 0-4.2.6-6.8 1.3z"/>
</svg>
