<svg style="position: absolute; width: 0; height: 0;" width="0" height="0" version="1.1" xmlns="http://www.w3.org/2000/svg" xmlns:xlink="http://www.w3.org/1999/xlink">
  <defs>

        <symbol id="box-arrow-up-right" viewBox="0 0 16 16">
            <title>Good Title: external link</title>
            <path fill-rule="evenodd" d="M8.636 3.5a.5.5 0 0 0-.5-.5H1.5A1.5 1.5 0 0 0 0 4.5v10A1.5 1.5 0 0 0 1.5 16h10a1.5 1.5 0 0 0 1.5-1.5V7.864a.5.5 0 0 0-1 0V14.5a.5.5 0 0 1-.5.5h-10a.5.5 0 0 1-.5-.5v-10a.5.5 0 0 1 .5-.5h6.636a.5.5 0 0 0 .5-.5z"/>
            <path fill-rule="evenodd" d="M16 .5a.5.5 0 0 0-.5-.5h-5a.5.5 0 0 0 0 1h3.793L6.146 9.146a.5.5 0 1 0 .708.708L15 1.707V5.5a.5.5 0 0 0 1 0v-5z"/>
        </symbol>
        <symbol id="card-image" viewBox="0 0 16 16">
            <title>Good Title: image</title>
            <path d="M6.002 5.5a1.5 1.5 0 1 1-3 0 1.5 1.5 0 0 1 3 0z"/>
            <path d="M1.5 2A1.5 1.5 0 0 0 0 3.5v9A1.5 1.5 0 0 0 1.5 14h13a1.5 1.5 0 0 0 1.5-1.5v-9A1.5 1.5 0 0 0 14.5 2h-13zm13 1a.5.5 0 0 1 .5.5v6l-3.775-1.947a.5.5 0 0 0-.577.093l-3.71 3.71-2.66-1.772a.5.5 0 0 0-.63.062L1.002 12v.54A.505.505 0 0 1 1 12.5v-9a.5.5 0 0 1 .5-.5h13z"/>
        </symbol>
        <symbol id="caret-right" viewBox="0 0 16 16">
            <title>Good Title: carat right</title>
            <path d="M6 12.796V3.204L11.481 8 6 12.796zm.659.753 5.48-4.796a1 1 0 0 0 0-1.506L6.66 2.451C6.011 1.885 5 2.345 5 3.204v9.592a1 1 0 0 0 1.659.753z"/>
        </symbol>
        <symbol id="caret-up" viewBox="0 0 16 16">
            <title>Good Title: carat up</title>
            <path d="M3.204 11h9.592L8 5.519 3.204 11zm-.753-.659 4.796-5.48a1 1 0 0 1 1.506 0l4.796 5.48c.566.647.106 1.659-.753 1.659H3.204a1 1 0 0 1-.753-1.659z"/>
        </symbol>
        <symbol id="check" viewBox="0 0 16 16">
            <title>Good Title: check</title>
            <path d="M13.854 3.646a.5.5 0 0 1 0 .708l-7 7a.5.5 0 0 1-.708 0l-3.5-3.5a.5.5 0 1 1 .708-.708L6.5 10.293l6.646-6.647a.5.5 0 0 1 .708 0z"/>
        </symbol>
        <symbol id="chevron-left" viewBox="0 0 16 16">
            <title>Good Title: chevron left</title>
            <path fill-rule="evenodd" d="M11.354 1.646a.5.5 0 0 1 0 .708L5.707 8l5.647 5.646a.5.5 0 0 1-.708.708l-6-6a.5.5 0 0 1 0-.708l6-6a.5.5 0 0 1 .708 0z"/>
        </symbol>
        <symbol id="chevron-right" viewBox="0 0 16 16">
            <title>Good Title: chevron right</title>
            <path fill-rule="evenodd" d="M4.646 1.646a.5.5 0 0 1 .708 0l6 6a.5.5 0 0 1 0 .708l-6 6a.5.5 0 0 1-.708-.708L10.293 8 4.646 2.354a.5.5 0 0 1 0-.708z"/>
        </symbol>
        <symbol id="svg-link" viewBox="0 0 16 16">
            <title>Good Title: link</title>
            <path d="M6.354 5.5H4a3 3 0 0 0 0 6h3a3 3 0 0 0 2.83-4H9c-.086 0-.17.01-.25.031A2 2 0 0 1 7 10.5H4a2 2 0 1 1 0-4h1.535c.218-.376.495-.714.82-1z"/>
            <path d="M9 5.5a3 3 0 0 0-2.83 4h1.098A2 2 0 0 1 9 6.5h3a2 2 0 1 1 0 4h-1.535a4.02 4.02 0 0 1-.82 1H12a3 3 0 1 0 0-6H9z"/>
        </symbol>
        <symbol id="svg-menu" viewBox="0 0 16 16">
            <title>Good Title: menu</title>
            <path fill-rule="evenodd" d="M2.5 12a.5.5 0 0 1 .5-.5h10a.5.5 0 0 1 0 1H3a.5.5 0 0 1-.5-.5zm0-4a.5.5 0 0 1 .5-.5h10a.5.5 0 0 1 0 1H3a.5.5 0 0 1-.5-.5zm0-4a.5.5 0 0 1 .5-.5h10a.5.5 0 0 1 0 1H3a.5.5 0 0 1-.5-.5z"/>
        </symbol>
        <symbol id="svg-person" viewBox="0 0 16 16">
            <title>Good Title: user</title>
            <path d="M3 14s-1 0-1-1 1-4 6-4 6 3 6 4-1 1-1 1H3Zm5-6a3 3 0 1 0 0-6 3 3 0 0 0 0 6Z"/>
        </symbol>

  </defs>
</svg>
